<?xml version="1.0" encoding="UTF-8" standalone="no"?>
<!-- Created with Inkscape (http://www.inkscape.org/) -->

<svg
   xmlns:dc="http://purl.org/dc/elements/1.1/"
   xmlns:cc="http://creativecommons.org/ns#"
   xmlns:rdf="http://www.w3.org/1999/02/22-rdf-syntax-ns#"
   xmlns:svg="http://www.w3.org/2000/svg"
   xmlns="http://www.w3.org/2000/svg"
   xmlns:sodipodi="http://sodipodi.sourceforge.net/DTD/sodipodi-0.dtd"
   xmlns:inkscape="http://www.inkscape.org/namespaces/inkscape"
   width="300"
   height="120"
   viewBox="0 0 300 120"
   id="svg6930"
   version="1.1"
   inkscape:version="0.91 r"
   sodipodi:docname="logo.svg">
  <defs
     id="defs6932" />
  <sodipodi:namedview
     id="base"
     pagecolor="#ffffff"
     bordercolor="#666666"
     borderopacity="1.0"
     inkscape:pageopacity="0.0"
     inkscape:pageshadow="2"
     inkscape:zoom="2"
     inkscape:cx="90.851008"
     inkscape:cy="35.858477"
     inkscape:document-units="px"
     inkscape:current-layer="g5052-8-3-8"
     showgrid="false"
     units="px"
     inkscape:window-width="1600"
     inkscape:window-height="876"
     inkscape:window-x="0"
     inkscape:window-y="24"
     inkscape:window-maximized="1" />
  <metadata
     id="metadata6935">
    <rdf:RDF>
      <cc:Work
         rdf:about="">
        <dc:format>image/svg+xml</dc:format>
        <dc:type
           rdf:resource="http://purl.org/dc/dcmitype/StillImage" />
        <dc:title />
      </cc:Work>
    </rdf:RDF>
  </metadata>
  <g
     inkscape:label="Layer 1"
     inkscape:groupmode="layer"
     id="layer1"
     transform="translate(0,-932.36216)">
    <g
       transform="matrix(0.69431073,0,0,0.69431073,-64.033089,545.23706)"
       id="g6845">
      <path
         inkscape:connector-curvature="0"
         id="path6719"
         style="font-style:normal;font-variant:normal;font-weight:bold;font-stretch:normal;font-size:31.26617622px;line-height:125%;font-family:Eurostile;-inkscape-font-specification:'Eurostile Bold';letter-spacing:0px;word-spacing:0px;fill:#f9f9f9;fill-opacity:1;stroke:none;stroke-width:1px;stroke-linecap:butt;stroke-linejoin:miter;stroke-opacity:1"
         d="m 162.17247,621.55134 29.45884,0 0.19608,13.68644 q 0,14.94903 -5.48984,19.29234 -5.44081,4.2928 -24.36113,4.2928 -17.3518,0 -22.98868,-5.75739 -5.63688,-5.75742 -5.63688,-23.48411 0,-22.62557 2.25475,-28.58498 2.79393,-7.27249 8.47983,-9.79769 5.6859,-2.52516 19.31245,-2.52516 17.84196,0 23.0377,3.93927 5.19573,3.88878 5.19573,17.32268 l -12.84229,0 q -0.34311,-6.76745 -2.89196,-8.38358 -2.49984,-1.66661 -12.64623,-1.66661 -11.02868,0 -14.01868,2.82821 -2.94098,2.82818 -2.94098,13.28242 l -0.049,6.91896 0.098,8.8381 q 0,10.25222 2.94099,13.08043 2.94098,2.77766 13.62655,2.77766 10.39147,0 13.1854,-2.37365 2.84295,-2.37368 2.84295,-11.21178 l 0.049,-2.82818 -16.81262,0 0,-9.64618 z" />
      <path
         inkscape:connector-curvature="0"
         id="path6721"
         style="font-style:normal;font-variant:normal;font-weight:bold;font-stretch:normal;font-size:31.26617622px;line-height:125%;font-family:Eurostile;-inkscape-font-specification:'Eurostile Bold';letter-spacing:0px;word-spacing:0px;fill:#f9f9f9;fill-opacity:1;stroke:none;stroke-width:1px;stroke-linecap:butt;stroke-linejoin:miter;stroke-opacity:1"
         d="m 242.02014,609.93554 0,48.28134 -11.22475,0 0.63722,-8.28258 -0.19608,-0.0506 q -3.2841,8.88862 -15.09704,8.88862 -15.93032,0 -15.93032,-16.41362 l 0,-32.42325 11.22475,0 0,29.64555 q 0,6.16144 1.66655,8.13107 1.66656,1.91912 6.91131,1.91912 10.7836,0 10.7836,-13.33293 l 0,-26.36281 11.22475,0 z" />
      <path
         inkscape:connector-curvature="0"
         id="path6723"
         style="font-style:normal;font-variant:normal;font-weight:bold;font-stretch:normal;font-size:31.26617622px;line-height:125%;font-family:Eurostile;-inkscape-font-specification:'Eurostile Bold';letter-spacing:0px;word-spacing:0px;fill:#f9f9f9;fill-opacity:1;stroke:none;stroke-width:1px;stroke-linecap:butt;stroke-linejoin:miter;stroke-opacity:1"
         d="m 264.56767,589.27964 0,68.93724 -11.22475,0 0,-68.93724 11.22475,0 z" />
      <path
         inkscape:connector-curvature="0"
         id="path6725"
         style="font-style:normal;font-variant:normal;font-weight:bold;font-stretch:normal;font-size:31.26617622px;line-height:125%;font-family:Eurostile;-inkscape-font-specification:'Eurostile Bold';letter-spacing:0px;word-spacing:0px;fill:#f9f9f9;fill-opacity:1;stroke:none;stroke-width:1px;stroke-linecap:butt;stroke-linejoin:miter;stroke-opacity:1"
         d="m 305.88847,642.76281 11.27377,0 0,1.86863 q 0,14.14097 -20.58688,14.14097 -13.96966,0 -18.2831,-4.89884 -4.31345,-4.89885 -4.31345,-20.75694 0,-14.09045 4.50951,-18.93877 4.50951,-4.84836 17.59688,-4.84836 12.54819,0 16.81261,4.74733 4.26443,4.69682 4.26443,18.53479 l 0,3.53522 -31.71359,0 q -0.098,1.61613 -0.098,2.12117 0,7.12098 2.10771,9.49463 2.15671,2.37369 8.52884,2.37369 6.17607,0 8.03869,-1.3636 1.86262,-1.4141 1.86262,-6.00992 z m 0.098,-13.68644 -0.049,-1.91915 q 0,-5.75739 -1.96066,-7.47451 -1.91164,-1.7171 -8.3818,-1.7171 -6.27409,0 -8.18573,2.07063 -1.86262,2.07066 -1.86262,9.04013 l 20.43982,0 z" />
      <path
         inkscape:connector-curvature="0"
         id="path6727"
         style="font-style:normal;font-variant:normal;font-weight:bold;font-stretch:normal;font-size:31.26617622px;line-height:125%;font-family:Eurostile;-inkscape-font-specification:'Eurostile Bold';letter-spacing:0px;word-spacing:0px;fill:#f9f9f9;fill-opacity:1;stroke:none;stroke-width:1px;stroke-linecap:butt;stroke-linejoin:miter;stroke-opacity:1"
         d="m 356.32631,639.78312 11.17575,0 0,1.66661 -0.68625,7.323 q -2.05868,9.99968 -20.0967,9.99968 -13.23443,0 -17.59688,-4.89884 -4.36246,-4.94933 -4.36246,-19.84787 0,-14.54498 4.36246,-19.59534 4.36245,-5.05035 16.95966,-5.05035 12.15606,0 16.4695,3.68676 4.31345,3.63625 4.31345,13.88846 l -11.12672,0 q 0,-8.43409 -9.46016,-8.43409 -6.71524,0 -8.43082,2.6767 -1.71557,2.67667 -1.71557,13.13088 0,10.1007 1.86262,12.72689 1.91164,2.57567 9.2641,2.57567 5.78393,0 7.40147,-1.76761 1.66655,-1.81812 1.66655,-8.08055 z" />
      <path
         inkscape:connector-curvature="0"
         id="path6729"
         style="font-style:normal;font-variant:normal;font-weight:bold;font-stretch:normal;font-size:31.26617622px;line-height:125%;font-family:Eurostile;-inkscape-font-specification:'Eurostile Bold';letter-spacing:0px;word-spacing:0px;fill:#f9f9f9;fill-opacity:1;stroke:none;stroke-width:1px;stroke-linecap:butt;stroke-linejoin:miter;stroke-opacity:1"
         d="m 386.91252,589.27964 0,28.63546 0.24497,0.0506 q 3.13705,-8.5856 14.41079,-8.5856 16.42049,0 16.42049,16.0096 l 0,32.82727 -11.22475,0 0,-29.64555 0,-1.56562 q 0,-8.48457 -8.38179,-8.48457 -11.46984,0 -11.46984,12.27236 l 0,27.42338 -11.22475,0 0,-68.93725 11.22475,0 z" />
      <path
         inkscape:connector-curvature="0"
         id="path6731"
         style="font-style:normal;font-variant:normal;font-weight:bold;font-stretch:normal;font-size:31.26617622px;line-height:125%;font-family:Eurostile;-inkscape-font-specification:'Eurostile Bold';letter-spacing:0px;word-spacing:0px;fill:#f9f9f9;fill-opacity:1;stroke:none;stroke-width:1px;stroke-linecap:butt;stroke-linejoin:miter;stroke-opacity:1"
         d="m 440.68348,623.92503 -11.46984,0 q 0,-8.6866 3.92132,-11.61581 3.9213,-2.92921 15.53819,-2.92921 12.64621,0 17.1067,3.58577 4.4605,3.58573 4.4605,13.68643 l 0,31.56467 -11.22475,0 0.53917,-6.61597 -0.2941,-0.0506 q -3.23507,7.22201 -14.94999,7.22201 -17.00868,0 -17.00868,-14.89852 0,-15.05002 17.40083,-15.05002 11.61687,0 14.1167,5.50485 l 0.19617,0 0,-7.82802 q 0,-5.65639 -1.91164,-7.47451 -1.91163,-1.86864 -7.84262,-1.86864 -8.57786,0 -8.57786,6.76748 z m 7.4995,12.67637 q -9.50919,0 -9.50919,6.76745 0,4.69681 1.96067,6.16143 1.96066,1.46459 8.23474,1.46459 10.24442,0 10.24442,-7.12098 0,-7.27249 -10.93064,-7.27249 z" />
      <path
         inkscape:connector-curvature="0"
         id="path6734"
         style="font-style:normal;font-variant:normal;font-weight:500;font-stretch:normal;font-size:18.81238747px;line-height:125%;font-family:Eurostile;-inkscape-font-specification:'Eurostile Medium';letter-spacing:0.89763415px;word-spacing:0px;fill:#f9f9f9;fill-opacity:1;stroke:none;stroke-width:1px;stroke-linecap:butt;stroke-linejoin:miter;stroke-opacity:1"
         d="m 135.78732,717.74775 20.13055,0 c 1.52505,0 3.5991,-0.24632 5.30715,-0.61619 3.4771,-0.80105 5.73416,-2.52641 7.2592,-5.60739 1.52504,-2.89611 1.89105,-6.28518 1.89105,-17.00701 0,-7.70242 -0.91502,-11.27636 -3.7211,-14.29573 -2.31806,-2.52641 -5.73416,-3.57394 -11.46831,-3.57394 l -19.39854,0 0,41.10026 z m 6.22217,-5.42253 0,-30.1936 12.74935,0 c 4.02611,0 6.16117,0.73944 7.44221,2.52641 1.52504,2.09507 1.89105,4.43661 1.89105,12.8785 0,7.51759 -0.42701,10.16722 -2.01306,12.26232 -1.28103,1.72532 -3.9041,2.52637 -7.99121,2.52637 l -12.07834,0 z" />
      <path
         inkscape:connector-curvature="0"
         id="path6736"
         style="font-style:normal;font-variant:normal;font-weight:500;font-stretch:normal;font-size:18.81238747px;line-height:125%;font-family:Eurostile;-inkscape-font-specification:'Eurostile Medium';letter-spacing:0.89763415px;word-spacing:0px;fill:#f9f9f9;fill-opacity:1;stroke:none;stroke-width:1px;stroke-linecap:butt;stroke-linejoin:miter;stroke-opacity:1"
         d="m 198.23375,708.75132 c 0,4.25173 -0.91503,4.92956 -6.89319,4.92956 -6.03917,0 -7.3202,-1.47888 -7.3202,-8.44189 l 0,-0.86267 19.88654,0 c 0,-6.22361 -0.12198,-7.82571 -0.79302,-9.92077 -1.46404,-4.31338 -4.45312,-5.85387 -11.59032,-5.85387 -10.61429,0 -13.23736,2.89614 -13.23736,14.60386 0,12.13905 2.44007,14.91194 13.35937,14.91194 8.96724,0 12.26133,-2.21831 12.26133,-8.25702 l 0,-1.10914 -5.67315,0 z m -14.15239,-8.19542 c 0.061,-6.5317 1.09803,-7.64084 7.3202,-7.64084 4.08711,0 5.67316,0.61622 6.34418,2.4648 0.42701,1.10914 0.48801,1.47884 0.54901,5.17604 l -14.21339,0 z" />
      <path
         inkscape:connector-curvature="0"
         id="path6738"
         style="font-style:normal;font-variant:normal;font-weight:500;font-stretch:normal;font-size:18.81238747px;line-height:125%;font-family:Eurostile;-inkscape-font-specification:'Eurostile Medium';letter-spacing:0.89763415px;word-spacing:0px;fill:#f9f9f9;fill-opacity:1;stroke:none;stroke-width:1px;stroke-linecap:butt;stroke-linejoin:miter;stroke-opacity:1"
         d="m 212.85105,688.97141 0,28.77634 5.61216,0 0,-17.19185 c 0,-5.17604 2.25706,-7.33275 7.68621,-7.33275 5.00213,0 5.91716,1.04753 5.91716,6.71654 l 0,17.80806 5.61215,0 0,-19.16369 c 0,-3.51229 -0.24401,-4.99117 -0.97602,-6.28518 -1.40304,-2.4648 -4.57513,-3.6972 -9.21125,-3.6972 -4.88014,0 -7.74722,1.54049 -9.08926,4.86795 l -0.12198,-0.0616 0.18301,-4.4366 -5.61215,0 z" />
      <path
         inkscape:connector-curvature="0"
         id="path6740"
         style="font-style:normal;font-variant:normal;font-weight:500;font-stretch:normal;font-size:18.81238747px;line-height:125%;font-family:Eurostile;-inkscape-font-specification:'Eurostile Medium';letter-spacing:0.89763415px;word-spacing:0px;fill:#f9f9f9;fill-opacity:1;stroke:none;stroke-width:1px;stroke-linecap:butt;stroke-linejoin:miter;stroke-opacity:1"
         d="m 264.47063,688.97141 -10.9193,0 0,-6.65492 -5.61216,0 0,6.65492 -3.8431,0 0,4.43661 3.8431,0 0,16.45244 c 0,2.58802 0.12199,3.57394 0.61002,4.62147 1.09803,2.58802 3.4771,3.63555 8.11322,3.63555 6.64919,0 8.96725,-2.34154 8.96725,-9.05807 0,-0.24665 0,-1.17079 -0.061,-1.97184 l -4.88014,0 c 0.061,0.67783 0.061,0.92431 0.061,1.35562 0,4.19016 -0.73202,5.17604 -3.78211,5.17604 -2.74507,0 -3.41609,-0.86266 -3.41609,-4.31334 l 0,-15.89787 10.9193,0 0,-4.43661 z" />
      <path
         inkscape:connector-curvature="0"
         id="path6742"
         style="font-style:normal;font-variant:normal;font-weight:500;font-stretch:normal;font-size:18.81238747px;line-height:125%;font-family:Eurostile;-inkscape-font-specification:'Eurostile Medium';letter-spacing:0.89763415px;word-spacing:0px;fill:#f9f9f9;fill-opacity:1;stroke:none;stroke-width:1px;stroke-linecap:butt;stroke-linejoin:miter;stroke-opacity:1"
         d="m 279.21566,697.16683 0,-0.49296 c 0.061,-3.32746 1.28103,-4.12851 6.28317,-4.12851 5.49015,0 6.58818,1.17075 6.58818,6.71653 l 0,4.0669 -0.12199,0 c -0.54901,-1.17079 -1.09803,-1.72536 -2.01305,-2.09509 -1.52504,-0.6778 -3.90411,-0.98589 -6.89319,-0.98589 -3.84311,0 -6.58818,0.67779 -8.23523,1.91019 -1.52504,1.17079 -2.44006,3.88204 -2.44006,7.14789 0,6.47005 2.74507,8.81159 10.55329,8.81159 5.49015,0 7.68621,-0.9243 9.33325,-3.94364 l 0.12202,0.0616 -0.305,3.51229 5.61216,0 0,-18.9172 c 0,-7.94893 -2.74508,-10.22886 -12.38334,-10.22886 -6.22218,0 -9.27226,0.86269 -10.6753,3.01937 -0.79302,1.29401 -1.03703,2.64963 -1.09803,5.54578 l 5.67316,0 z m 5.85616,7.08624 c 5.55115,0 7.1372,1.04753 7.1372,4.86795 0,3.51233 -1.83005,4.68308 -7.50321,4.68308 -5.36815,0 -6.52718,-0.92427 -6.52718,-5.11443 0,-3.57394 1.34204,-4.4366 6.89319,-4.4366 z" />
      <path
         inkscape:connector-curvature="0"
         id="path6744"
         style="font-style:normal;font-variant:normal;font-weight:500;font-stretch:normal;font-size:18.81238747px;line-height:125%;font-family:Eurostile;-inkscape-font-specification:'Eurostile Medium';letter-spacing:0.89763415px;word-spacing:0px;fill:#f9f9f9;fill-opacity:1;stroke:none;stroke-width:1px;stroke-linecap:butt;stroke-linejoin:miter;stroke-opacity:1"
         d="m 313.09805,676.64749 -5.61216,0 0,41.10026 5.61216,0 0,-41.10026 z" />
      <path
         inkscape:connector-curvature="0"
         id="path6746"
         style="font-style:normal;font-variant:normal;font-weight:500;font-stretch:normal;font-size:18.81238747px;line-height:125%;font-family:Eurostile;-inkscape-font-specification:'Eurostile Medium';letter-spacing:0.89763415px;word-spacing:0px;fill:#f9f9f9;fill-opacity:1;stroke:none;stroke-width:1px;stroke-linecap:butt;stroke-linejoin:miter;stroke-opacity:1"
         d="m 367.53968,703.57524 c 0.061,0.92431 0.061,1.41727 0.061,1.97184 0,6.28518 -1.28104,7.14788 -10.61429,7.14788 -6.34418,0 -8.17423,-0.67783 -9.27226,-3.38907 -0.85402,-2.15671 -1.03703,-4.99121 -1.03703,-17.99293 0,-8.62673 1.22004,-9.61265 12.13933,-9.61265 7.38121,0 8.17423,0.73944 8.29623,8.07216 l 6.22217,0 c -0.061,-2.58803 -0.12193,-3.32747 -0.24385,-4.62148 -0.30513,-3.32746 -1.70803,-5.97709 -3.9651,-7.2711 -2.13506,-1.29401 -4.08711,-1.60211 -9.69927,-1.60211 -9.94327,0 -12.93235,0.6778 -15.86043,3.5123 -2.80608,2.64967 -3.41609,5.2993 -3.41609,14.91195 0,4.0669 0.12198,8.87321 0.366,11.33801 0.42702,5.60739 2.01306,8.62673 5.42915,10.4137 2.44007,1.29401 4.81914,1.66374 10.9193,1.66374 4.08712,0 7.38121,-0.12315 8.84525,-0.43134 2.31806,-0.36971 4.51412,-1.41724 5.67316,-2.71125 1.83005,-1.97184 2.37906,-4.19016 2.37906,-9.98238 l 0,-1.41727 -6.22217,0 z" />
      <path
         inkscape:connector-curvature="0"
         id="path6748"
         style="font-style:normal;font-variant:normal;font-weight:500;font-stretch:normal;font-size:18.81238747px;line-height:125%;font-family:Eurostile;-inkscape-font-specification:'Eurostile Medium';letter-spacing:0.89763415px;word-spacing:0px;fill:#f9f9f9;fill-opacity:1;stroke:none;stroke-width:1px;stroke-linecap:butt;stroke-linejoin:miter;stroke-opacity:1"
         d="m 387.96072,697.16683 0,-0.49296 c 0.061,-3.32746 1.28104,-4.12851 6.28319,-4.12851 5.49013,0 6.58819,1.17075 6.58819,6.71653 l 0,4.0669 -0.12193,0 c -0.54901,-1.17079 -1.09802,-1.72536 -2.01306,-2.09509 -1.52504,-0.6778 -3.90409,-0.98589 -6.89319,-0.98589 -3.8431,0 -6.58815,0.67779 -8.23521,1.91019 -1.52505,1.17079 -2.44005,3.88204 -2.44005,7.14789 0,6.47005 2.74505,8.81159 10.55328,8.81159 5.49013,0 7.6862,-0.9243 9.33324,-3.94364 l 0.12192,0.0616 -0.30513,3.51229 5.61215,0 0,-18.9172 c 0,-7.94893 -2.74508,-10.22886 -12.38336,-10.22886 -6.22216,0 -9.27224,0.86269 -10.6753,3.01937 -0.79301,1.29401 -1.03702,2.64963 -1.09802,5.54578 l 5.67315,0 z m 5.85617,7.08624 c 5.55116,0 7.13719,1.04753 7.13719,4.86795 0,3.51233 -1.83004,4.68308 -7.50319,4.68308 -5.36815,0 -6.52719,-0.92427 -6.52719,-5.11443 0,-3.57394 1.34202,-4.4366 6.89319,-4.4366 z" />
      <path
         inkscape:connector-curvature="0"
         id="path6750"
         style="font-style:normal;font-variant:normal;font-weight:500;font-stretch:normal;font-size:18.81238747px;line-height:125%;font-family:Eurostile;-inkscape-font-specification:'Eurostile Medium';letter-spacing:0.89763415px;word-spacing:0px;fill:#f9f9f9;fill-opacity:1;stroke:none;stroke-width:1px;stroke-linecap:butt;stroke-linejoin:miter;stroke-opacity:1"
         d="m 416.23097,688.97141 0,28.77634 5.61216,0 0,-17.13024 c 0,-2.58802 0.18288,-3.82042 0.61,-4.86795 0.85401,-1.78697 2.68409,-2.77289 5.30715,-2.77289 3.05009,0 4.08712,1.10918 4.08712,4.43664 0,0.55457 0,1.04753 -0.061,1.91019 l 5.30712,0 c 0.061,-0.86266 0.061,-1.78697 0.061,-2.03345 0,-6.28519 -2.25707,-8.87321 -7.68621,-8.87321 -3.96512,0 -6.10017,1.17076 -7.93022,4.31335 l -0.12192,-0.0616 0.42702,-3.69716 -5.61215,0 z" />
      <path
         inkscape:connector-curvature="0"
         id="path6752"
         style="font-style:normal;font-variant:normal;font-weight:500;font-stretch:normal;font-size:18.81238747px;line-height:125%;font-family:Eurostile;-inkscape-font-specification:'Eurostile Medium';letter-spacing:0.89763415px;word-spacing:0px;fill:#f9f9f9;fill-opacity:1;stroke:none;stroke-width:1px;stroke-linecap:butt;stroke-linejoin:miter;stroke-opacity:1"
         d="m 463.90926,708.75132 c 0,4.25173 -0.91504,4.92956 -6.89319,4.92956 -6.03918,0 -7.32021,-1.47888 -7.32021,-8.44189 l 0,-0.86267 19.88655,0 c 0,-6.22361 -0.12193,-7.82571 -0.79302,-9.92077 -1.46405,-4.31338 -4.45311,-5.85387 -11.59031,-5.85387 -10.6143,0 -13.23737,2.89614 -13.23737,14.60386 0,12.13905 2.44005,14.91194 13.35936,14.91194 8.96724,0 12.26134,-2.21831 12.26134,-8.25702 l 0,-1.10914 -5.67315,0 z m -14.15238,-8.19542 c 0.061,-6.5317 1.09802,-7.64084 7.32018,-7.64084 4.08711,0 5.67315,0.61622 6.34418,2.4648 0.42702,1.10914 0.48802,1.47884 0.54901,5.17604 l -14.21337,0 z" />
      <g
         id="g5052-8-3-8"
         transform="matrix(0.32459621,0,0,0.32459621,186.30698,390.76636)"
         style="fill:#d45500;fill-opacity:1">
        <path
           style="color:#000000;display:inline;overflow:visible;visibility:visible;opacity:1;fill:#f9f9f9;fill-opacity:1;fill-rule:nonzero;stroke:none;stroke-width:8;stroke-linejoin:miter;stroke-miterlimit:10;stroke-dasharray:none;stroke-dashoffset:0;stroke-opacity:1;marker:none;enable-background:accumulate"
           d="m 808.02734,49.617188 a 55.714287,55.714287 0 0 0 -55.71484,55.712892 55.714287,55.714287 0 0 0 55.71484,55.71484 55.714287,55.714287 0 0 0 55.71485,-55.71484 55.714287,55.714287 0 0 0 -55.71485,-55.712892 z m -8.91406,24.265624 0.002,0.0039 c 0.47527,0.02704 0.95482,0.08779 1.42969,0.183593 4.79917,0.721311 8.29019,4.918817 13.14063,5.466797 3.65383,0.55451 7.19457,-1.016534 10.83203,-0.927734 6.65048,0.31015 12.12256,6.725125 12.03906,13.390625 a 26.83051,5.9717576 8.3718944 0 0 0.55274,-0.900391 26.83051,5.9717576 8.3718944 0 0 -0.1211,-0.792968 28.075466,7.6402709 8.3321702 0 1 1.06641,2.621093 28.075466,7.6402709 8.3321702 0 1 -0.0391,0.148438 l -0.0137,-0.0039 a 28.075466,7.6402709 8.3321702 0 1 -29.02343,3.214843 28.075466,7.6402709 8.3321702 0 1 -24.17383,-7.919921 27.4144,5.5224254 7.2714767 0 1 -0.63867,-0.484376 28.075466,7.6402709 8.3321702 0 1 -0.84766,-0.890624 27.4144,5.5224254 7.2714767 0 1 -0.15234,-0.253907 28.075466,7.6402709 8.3321702 0 1 -0.48047,-0.878906 l -0.0156,-0.0039 a 28.075466,7.6402709 8.3321702 0 1 -0.16015,-1.179688 28.075466,7.6402709 8.3321702 0 1 1.89843,-2.183593 26.83051,5.9717576 8.3718944 0 0 -0.38281,0.724609 26.83051,5.9717576 8.3718944 0 0 0.93555,1.939453 c 0.53239,-3.23259 2.13621,-6.294414 4.8164,-8.177734 2.7222,-1.8722 6.0089,-3.285823 9.33594,-3.095704 z m -14.3457,15.894532 c 4e-5,0.002 -4e-5,0.0039 0,0.0059 a 28.011101,8.1183175 7.0846122 0 0 23.93554,7.650391 28.011101,8.1183175 7.0846122 0 0 27.38086,-2.019532 c -0.36737,1.606241 -0.90617,3.146437 -1.53125,4.654297 a 26.125057,5.9682062 8.6244248 0 0 1.42188,-1.550781 26.125057,5.9682062 8.6244248 0 0 -0.11719,-0.789062 27.337151,7.6357636 8.5967684 0 1 1.03906,2.619143 27.337151,7.6357636 8.5967684 0 1 -0.0625,0.17773 27.337151,7.6357636 8.5967684 0 1 -0.3125,0.68359 27.337151,7.6357636 8.5967684 0 1 -27.91406,2.49805 27.337151,7.6357636 8.5967684 0 1 -23.51562,-7.912107 26.689713,5.5199443 7.4875476 0 1 -0.61328,-0.47461 27.337151,7.6357636 8.5967684 0 1 -0.83985,-0.908203 26.689713,5.5199443 7.4875476 0 1 -0.14844,-0.253906 27.337151,7.6357636 8.5967684 0 1 -0.46679,-0.884765 l -0.0156,-0.0039 a 27.337151,7.6357636 8.5967684 0 1 -0.15625,-1.171875 27.337151,7.6357636 8.5967684 0 1 1.85156,-2.185547 26.125057,5.9682062 8.6244248 0 0 -0.375,0.722657 26.125057,5.9682062 8.6244248 0 0 0.48438,1.447265 c -0.0404,-0.765898 -0.0299,-1.531774 -0.0449,-2.298828 a 28.011101,8.1183175 7.0846122 0 1 -0.006,-0.0039 l 0.006,-0.002 z m -0.88281,6.302734 a 27.270055,8.1148432 7.3152987 0 0 0.0527,0.05469 25.365937,5.9640204 8.9146206 0 0 -0.23242,0.533203 25.365937,5.9640204 8.9146206 0 0 1.61133,2.595703 c -0.0463,-0.65322 -0.0971,-1.305915 -0.14258,-1.958984 a 27.270055,8.1148432 7.3152987 0 0 23.16992,7.54687 27.270055,8.1148432 7.3152987 0 0 24.44141,-0.96289 c -0.44266,0.88648 -0.88599,1.77352 -1.34571,2.6543 a 25.365937,5.9640204 8.9146206 0 0 2.38282,-1.99024 25.365937,5.9640204 8.9146206 0 0 -0.11524,-0.79296 26.542728,7.6304326 8.9022088 0 1 1.00586,2.61914 26.542728,7.6304326 8.9022088 0 1 -0.0606,0.19921 26.542728,7.6304326 8.9022088 0 1 -0.33203,0.70508 26.542728,7.6304326 8.9022088 0 1 -0.0156,0.0234 26.542728,7.6304326 8.9022088 0 1 -27.03321,2.43359 26.542728,7.6304326 8.9022088 0 1 -22.45703,-7.61523 25.909731,5.5170216 7.7355452 0 1 -0.29687,-0.21484 26.542728,7.6304326 8.9022088 0 1 -1.63477,-1.70508 25.909731,5.5170216 7.7355452 0 1 -0.0371,-0.0937 26.542728,7.6304326 8.9022088 0 1 -0.38281,-0.740234 l -0.0156,-0.0059 a 26.542728,7.6304326 8.9022088 0 1 -0.17188,-1.234375 26.542728,7.6304326 8.9022088 0 1 1.60938,-2.050781 z m 1.66015,8.064452 0.002,0 a 26.47252,8.1107284 7.5822362 0 0 21.46874,6.79883 26.47252,8.1107284 7.5822362 0 0 22.49805,-0.55274 c -0.68854,1.44906 -1.33148,2.91623 -1.83594,4.43946 -1.99465,4.91403 -2.37569,10.39746 -4.86328,15.11719 -2.999,5.14813 -7.92359,6.71945 -12.82031,6.20703 -2.92013,-2.56954 2.82912,-9.69005 1.60156,-16.51368 -0.5147,-2.62781 -1.56285,-5.66219 -4.15625,-6.80078 -3.12131,-1.2103 -6.17949,1.17716 -7.76562,3.75196 -3.80685,6.07201 -0.57035,17.35239 -4.51563,19.00586 -3.66636,1.07035 -9.22456,-5.81185 -10.29297,-11.5918 -0.85311,-5.41979 0.61208,-10.84594 0.61133,-16.2832 0.0835,-1.19438 0.0836,-2.38654 0.0684,-3.57813 z"
           transform="translate(120.54365,495.603)"
           id="path5021-9-4-1"
           inkscape:connector-curvature="0" />
      </g>
    </g>
  </g>
</svg>
