<?xml version="1.0" encoding="UTF-8" standalone="no"?>
<!-- Created with Inkscape (http://www.inkscape.org/) -->

<svg
   xmlns:dc="http://purl.org/dc/elements/1.1/"
   xmlns:cc="http://creativecommons.org/ns#"
   xmlns:rdf="http://www.w3.org/1999/02/22-rdf-syntax-ns#"
   xmlns:svg="http://www.w3.org/2000/svg"
   xmlns="http://www.w3.org/2000/svg"
   xmlns:sodipodi="http://sodipodi.sourceforge.net/DTD/sodipodi-0.dtd"
   xmlns:inkscape="http://www.inkscape.org/namespaces/inkscape"
   width="300"
   height="120"
   viewBox="0 0 300 120"
   id="svg6930"
   version="1.1"
   inkscape:version="0.91 r"
   sodipodi:docname="logo.svg">
  <defs
     id="defs6932" />
  <sodipodi:namedview
     id="base"
     pagecolor="#ffffff"
     bordercolor="#666666"
     borderopacity="1.0"
     inkscape:pageopacity="0.0"
     inkscape:pageshadow="2"
     inkscape:zoom="1"
     inkscape:cx="444.87658"
     inkscape:cy="-253.83827"
     inkscape:document-units="px"
     inkscape:current-layer="g5052-8-3-8"
     showgrid="false"
     units="px"
     inkscape:window-width="1920"
     inkscape:window-height="1056"
     inkscape:window-x="0"
     inkscape:window-y="24"
     inkscape:window-maximized="1" />
  <metadata
     id="metadata6935">
    <rdf:RDF>
      <cc:Work
         rdf:about="">
        <dc:format>image/svg+xml</dc:format>
        <dc:type
           rdf:resource="http://purl.org/dc/dcmitype/StillImage" />
        <dc:title />
      </cc:Work>
    </rdf:RDF>
  </metadata>
  <g
     inkscape:label="Layer 1"
     inkscape:groupmode="layer"
     id="layer1"
     transform="translate(0,-932.36216)">
    <g
       transform="matrix(0.69431073,0,0,0.69431073,-64.033089,545.23706)"
       id="g6845">
      <g
         id="g5052-8-3-8"
         transform="matrix(0.32459621,0,0,0.32459621,186.30698,390.76636)"
         style="fill:#d45500;fill-opacity:1">
        <g
           id="g4420"
           transform="matrix(2.5036374,0,0,2.5036374,-394.03176,-900.48196)">
          <path
             inkscape:connector-curvature="0"
             id="rect10297-0"
             d="m 134.04308,732.21552 338.38689,0 c 0.70585,0 1.2741,0.56824 1.2741,1.27409 0,0.70585 -0.56825,1.2741 -1.2741,1.2741 l -338.38689,0 c -0.70585,0 -1.2741,-0.56825 -1.2741,-1.2741 0,-0.70585 0.56825,-1.27409 1.2741,-1.27409 z"
             style="color:#000000;display:inline;overflow:visible;visibility:visible;opacity:1;fill:#ff8635;fill-opacity:1;fill-rule:nonzero;stroke:none;stroke-width:8;stroke-linejoin:miter;stroke-miterlimit:10;stroke-dasharray:none;stroke-dashoffset:0;stroke-opacity:1;marker:none;enable-background:accumulate" />
          <g
             inkscape:export-ydpi="263.07999"
             inkscape:export-xdpi="263.07999"
             transform="matrix(3.2590151,0,0,3.2590151,45.54792,-859.14147)"
             id="g12413">
            <g
               id="text4136-8-0-3-2"
               style="font-style:normal;font-variant:normal;font-weight:bold;font-stretch:normal;font-size:31.26617622px;line-height:125%;font-family:Bariol;-inkscape-font-specification:'Bariol Bold';letter-spacing:0px;word-spacing:0px;fill:#ffffff;fill-opacity:1;stroke:none;stroke-width:1px;stroke-linecap:butt;stroke-linejoin:miter;stroke-opacity:1"
               transform="scale(0.98516722,1.0150561)">
              <path
                 inkscape:connector-curvature="0"
                 id="path4228"
                 style="font-style:normal;font-variant:normal;font-weight:bold;font-stretch:normal;font-size:31.26617622px;font-family:Eurostile;-inkscape-font-specification:'Eurostile Bold';fill:#ffffff;fill-opacity:1"
                 d="m 36.324001,447.59842 9.175279,0 0.06107,4.13727 q 0,4.51894 -1.709869,5.83188 -1.694603,1.29767 -7.587544,1.29767 -5.404407,0 -7.160076,-1.7404 -1.75567,-1.74041 -1.75567,-7.09901 0,-6.83948 0.702268,-8.64095 0.870201,-2.1984 2.641137,-2.96174 1.770936,-0.76333 6.015075,-0.76333 5.557074,0 7.175343,1.1908 1.618269,1.17554 1.618269,5.23647 l -3.999872,0 q -0.106867,-2.04573 -0.900735,-2.53427 -0.778601,-0.5038 -3.938805,-0.5038 -3.435005,0 -4.366273,0.85494 -0.916001,0.85493 -0.916001,4.01514 l -0.01527,2.09153 0.03053,2.67167 q 0,3.09914 0.916001,3.95408 0.916001,0.83966 4.244139,0.83966 3.236538,0 4.106739,-0.71753 0.885468,-0.71754 0.885468,-3.38921 l 0.01527,-0.85493 -5.236474,0 0,-2.91594 z" />
              <path
                 inkscape:connector-curvature="0"
                 id="path4230"
                 style="font-style:normal;font-variant:normal;font-weight:bold;font-stretch:normal;font-size:31.26617622px;font-family:Eurostile;-inkscape-font-specification:'Eurostile Bold';fill:#ffffff;fill-opacity:1"
                 d="m 61.193435,444.08708 0,14.59496 -3.496071,0 0.198467,-2.50374 -0.06107,-0.0153 q -1.022868,2.68694 -4.70214,2.68694 -4.961673,0 -4.961673,-4.96167 l 0,-9.80122 3.496071,0 0,8.96155 q 0,1.86254 0.519068,2.45794 0.519067,0.58013 2.152602,0.58013 3.358672,0 3.358672,-4.03041 l 0,-7.96921 3.496071,0 z" />
              <path
                 inkscape:connector-curvature="0"
                 id="path4232"
                 style="font-style:normal;font-variant:normal;font-weight:bold;font-stretch:normal;font-size:31.26617622px;font-family:Eurostile;-inkscape-font-specification:'Eurostile Bold';fill:#ffffff;fill-opacity:1"
                 d="m 68.216113,437.84301 0,20.83903 -3.496072,0 0,-20.83903 3.496072,0 z" />
              <path
                 inkscape:connector-curvature="0"
                 id="path4234"
                 style="font-style:normal;font-variant:normal;font-weight:bold;font-stretch:normal;font-size:31.26617622px;font-family:Eurostile;-inkscape-font-specification:'Eurostile Bold';fill:#ffffff;fill-opacity:1"
                 d="m 81.08593,454.01043 3.511338,0 0,0.56487 q 0,4.27467 -6.412009,4.27467 -4.351006,0 -5.694474,-1.48087 -1.343469,-1.48087 -1.343469,-6.27461 0,-4.2594 1.404535,-5.725 1.404536,-1.46561 5.480741,-1.46561 3.908272,0 5.236474,1.43507 1.328202,1.4198 1.328202,5.60288 l 0,1.06866 -9.877547,0 q -0.03053,0.48854 -0.03053,0.64121 0,2.1526 0.656467,2.87013 0.671734,0.71754 2.656404,0.71754 1.923602,0 2.503736,-0.4122 0.580135,-0.42747 0.580135,-1.81674 z m 0.03053,-4.13727 -0.01527,-0.58014 q 0,-1.7404 -0.610667,-2.25947 -0.595401,-0.51906 -2.610604,-0.51906 -1.954136,0 -2.549537,0.62593 -0.580134,0.62594 -0.580134,2.73274 l 6.366209,0 z" />
              <path
                 inkscape:connector-curvature="0"
                 id="path4236"
                 style="font-style:normal;font-variant:normal;font-weight:bold;font-stretch:normal;font-size:31.26617622px;font-family:Eurostile;-inkscape-font-specification:'Eurostile Bold';fill:#ffffff;fill-opacity:1"
                 d="m 96.795351,453.1097 3.480809,0 0,0.5038 -0.21374,2.21367 q -0.641199,3.0228 -6.25934,3.0228 -4.122006,0 -5.480741,-1.48087 -1.358735,-1.49613 -1.358735,-5.99981 0,-4.3968 1.358735,-5.92347 1.358735,-1.52667 5.282274,-1.52667 3.786139,0 5.129607,1.11447 1.34347,1.0992 1.34347,4.19834 l -3.465539,0 q 0,-2.54954 -2.946471,-2.54954 -2.091536,0 -2.62587,0.80914 -0.534334,0.80913 -0.534334,3.96933 0,3.05334 0.580134,3.84721 0.5954,0.7786 2.885404,0.7786 1.801469,0 2.305269,-0.53433 0.519068,-0.5496 0.519068,-2.44267 z" />
              <path
                 inkscape:connector-curvature="0"
                 id="path4238"
                 style="font-style:normal;font-variant:normal;font-weight:bold;font-stretch:normal;font-size:31.26617622px;font-family:Eurostile;-inkscape-font-specification:'Eurostile Bold';fill:#ffffff;fill-opacity:1"
                 d="m 106.32176,437.84301 0,8.65621 0.0763,0.0153 q 0.97707,-2.59534 4.4884,-2.59534 5.11434,0 5.11434,4.83954 l 0,9.92335 -3.49607,0 0,-8.96155 0,-0.47327 q 0,-2.5648 -2.6106,-2.5648 -3.57241,0 -3.57241,3.70981 l 0,8.28981 -3.49607,0 0,-20.83903 3.49607,0 z" />
              <path
                 inkscape:connector-curvature="0"
                 id="path4240"
                 style="font-style:normal;font-variant:normal;font-weight:bold;font-stretch:normal;font-size:31.26617622px;font-family:Eurostile;-inkscape-font-specification:'Eurostile Bold';fill:#ffffff;fill-opacity:1"
                 d="m 123.06932,448.31596 -3.57241,0 q 0,-2.62587 1.22134,-3.51134 1.22133,-0.88547 4.83954,-0.88547 3.9388,0 5.32807,1.08394 1.38927,1.08393 1.38927,4.13727 l 0,9.54168 -3.49607,0 0.16793,-1.99994 -0.0916,-0.0153 q -1.0076,2.18314 -4.65634,2.18314 -5.29754,0 -5.29754,-4.50367 0,-4.54947 5.41968,-4.54947 3.6182,0 4.3968,1.66406 l 0.0611,0 0,-2.36633 q 0,-1.70987 -0.5954,-2.25947 -0.5954,-0.56487 -2.44267,-0.56487 -2.67167,0 -2.67167,2.04574 z m 2.3358,3.83194 q -2.96174,0 -2.96174,2.04573 0,1.4198 0.61067,1.86254 0.61067,0.44273 2.5648,0.44273 3.19074,0 3.19074,-2.1526 0,-2.1984 -3.40447,-2.1984 z" />
            </g>
            <g
               id="text4140-6-9-7-8"
               style="font-style:normal;font-variant:normal;font-weight:normal;font-stretch:normal;font-size:18.81238747px;line-height:125%;font-family:Bariol;-inkscape-font-specification:Bariol;letter-spacing:0.89763415px;word-spacing:0px;fill:#ffffff;fill-opacity:1;stroke:none;stroke-width:1px;stroke-linecap:butt;stroke-linejoin:miter;stroke-opacity:1"
               transform="scale(0.9949734,1.005052)">
              <path
                 inkscape:connector-curvature="0"
                 id="path4243"
                 style="font-style:normal;font-variant:normal;font-weight:500;font-stretch:normal;font-size:18.81238747px;font-family:Eurostile;-inkscape-font-specification:'Eurostile Medium';letter-spacing:0.89763415px;word-spacing:0px;fill:#ffffff;fill-opacity:1"
                 d="m 27.829049,481.42239 6.208088,0 c 0.47031,0 1.109931,-0.0752 1.636678,-0.18812 1.072306,-0.24456 1.768364,-0.77131 2.238674,-1.71193 0.47031,-0.88418 0.583184,-1.91886 0.583184,-5.19222 0,-2.35154 -0.282186,-3.44266 -1.147556,-4.36447 -0.71487,-0.77131 -1.768364,-1.09112 -3.536728,-1.09112 l -5.98234,0 0,12.54786 z m 1.918864,-1.65549 0,-9.21807 3.931789,0 c 1.241617,0 1.900051,0.22575 2.295111,0.77131 0.47031,0.63962 0.583184,1.35449 0.583184,3.93179 0,2.29511 -0.131687,3.10404 -0.620809,3.74367 -0.39506,0.52674 -1.203992,0.7713 -2.464422,0.7713 l -3.724853,0 z" />
              <path
                 inkscape:connector-curvature="0"
                 id="path4245"
                 style="font-style:normal;font-variant:normal;font-weight:500;font-stretch:normal;font-size:18.81238747px;font-family:Eurostile;-inkscape-font-specification:'Eurostile Medium';letter-spacing:0.89763415px;word-spacing:0px;fill:#ffffff;fill-opacity:1"
                 d="m 47.086986,478.67579 c 0,1.29805 -0.282186,1.50499 -2.1258,1.50499 -1.862426,0 -2.257486,-0.4515 -2.257486,-2.5773 l 0,-0.26337 6.132838,0 c 0,-1.90006 -0.03762,-2.38918 -0.244561,-3.0288 -0.451497,-1.31687 -1.373304,-1.78718 -3.574354,-1.78718 -3.273355,0 -4.082288,0.88419 -4.082288,4.45854 0,3.70604 0.752496,4.5526 4.119913,4.5526 2.765421,0 3.78129,-0.67725 3.78129,-2.52086 l 0,-0.33862 -1.749552,0 z m -4.364474,-2.50205 c 0.01881,-1.99412 0.338623,-2.33274 2.257487,-2.33274 1.26043,0 1.749552,0.18813 1.956488,0.7525 0.131687,0.33862 0.150499,0.45149 0.169311,1.58024 l -4.383286,0 z" />
              <path
                 inkscape:connector-curvature="0"
                 id="path4247"
                 style="font-style:normal;font-variant:normal;font-weight:500;font-stretch:normal;font-size:18.81238747px;font-family:Eurostile;-inkscape-font-specification:'Eurostile Medium';letter-spacing:0.89763415px;word-spacing:0px;fill:#ffffff;fill-opacity:1"
                 d="m 51.594836,472.63701 0,8.78538 1.730739,0 0,-5.24865 c 0,-1.58024 0.696059,-2.23868 2.370361,-2.23868 1.542616,0 1.824802,0.31981 1.824802,2.05055 l 0,5.43678 1.730739,0 0,-5.85065 c 0,-1.0723 -0.07525,-1.5238 -0.300998,-1.91886 -0.432685,-0.7525 -1.410929,-1.12875 -2.84067,-1.12875 -1.504991,0 -2.389174,0.47031 -2.803046,1.48618 l -0.03762,-0.0188 0.05644,-1.35449 -1.730739,0 z" />
              <path
                 inkscape:connector-curvature="0"
                 id="path4249"
                 style="font-style:normal;font-variant:normal;font-weight:500;font-stretch:normal;font-size:18.81238747px;font-family:Eurostile;-inkscape-font-specification:'Eurostile Medium';letter-spacing:0.89763415px;word-spacing:0px;fill:#ffffff;fill-opacity:1"
                 d="m 67.513865,472.63701 -3.367417,0 0,-2.03174 -1.73074,0 0,2.03174 -1.18518,0 0,1.35449 1.18518,0 0,5.02291 c 0,0.79012 0.03762,1.09112 0.188124,1.41093 0.338623,0.79012 1.072306,1.10993 2.502048,1.10993 2.05055,0 2.765421,-0.71487 2.765421,-2.76542 0,-0.0753 0,-0.35744 -0.01881,-0.602 l -1.504991,0 c 0.01881,0.20694 0.01881,0.28219 0.01881,0.41387 0,1.27925 -0.225749,1.58024 -1.166368,1.58024 -0.846558,0 -1.053494,-0.26337 -1.053494,-1.31686 l 0,-4.8536 3.367417,0 0,-1.35449 z" />
              <path
                 inkscape:connector-curvature="0"
                 id="path4251"
                 style="font-style:normal;font-variant:normal;font-weight:500;font-stretch:normal;font-size:18.81238747px;font-family:Eurostile;-inkscape-font-specification:'Eurostile Medium';letter-spacing:0.89763415px;word-spacing:0px;fill:#ffffff;fill-opacity:1"
                 d="m 72.061105,475.13906 0,-0.1505 c 0.01881,-1.01587 0.39506,-1.26043 1.937676,-1.26043 1.693115,0 2.031738,0.35743 2.031738,2.05055 l 0,1.24162 -0.03762,0 c -0.169311,-0.35744 -0.338623,-0.52675 -0.620809,-0.63963 -0.470309,-0.20693 -1.203992,-0.30099 -2.125799,-0.30099 -1.185181,0 -2.031738,0.20693 -2.539673,0.58318 -0.470309,0.35744 -0.752495,1.18518 -0.752495,2.18224 0,1.9753 0.846557,2.69017 3.254543,2.69017 1.693115,0 2.370361,-0.28219 2.878295,-1.20399 l 0.03763,0.0188 -0.09406,1.0723 1.73074,0 0,-5.7754 c 0,-2.4268 -0.846558,-3.12286 -3.818915,-3.12286 -1.918864,0 -2.859483,0.26338 -3.292168,0.92181 -0.244561,0.39506 -0.319811,0.80893 -0.338623,1.69312 l 1.749552,0 z m 1.805989,2.16342 c 1.711928,0 2.20105,0.31981 2.20105,1.48618 0,1.07231 -0.564372,1.42974 -2.313924,1.42974 -1.65549,0 -2.012925,-0.28218 -2.012925,-1.56143 0,-1.09112 0.413872,-1.35449 2.125799,-1.35449 z" />
              <path
                 inkscape:connector-curvature="0"
                 id="path4253"
                 style="font-style:normal;font-variant:normal;font-weight:500;font-stretch:normal;font-size:18.81238747px;font-family:Eurostile;-inkscape-font-specification:'Eurostile Medium';letter-spacing:0.89763415px;word-spacing:0px;fill:#ffffff;fill-opacity:1"
                 d="m 82.51014,468.87453 -1.73074,0 0,12.54786 1.73074,0 0,-12.54786 z" />
              <path
                 inkscape:connector-curvature="0"
                 id="path4255"
                 style="font-style:normal;font-variant:normal;font-weight:500;font-stretch:normal;font-size:18.81238747px;font-family:Eurostile;-inkscape-font-specification:'Eurostile Medium';letter-spacing:0.89763415px;word-spacing:0px;fill:#ffffff;fill-opacity:1"
                 d="m 99.299468,477.09554 c 0.01881,0.28219 0.01881,0.43269 0.01881,0.602 0,1.91886 -0.39506,2.18224 -3.273355,2.18224 -1.956489,0 -2.52086,-0.20694 -2.859483,-1.03468 -0.263374,-0.65844 -0.319811,-1.52381 -0.319811,-5.49322 0,-2.63373 0.376248,-2.93473 3.743665,-2.93473 2.276299,0 2.52086,0.22575 2.558485,2.46442 l 1.918861,0 c -0.0188,-0.79012 -0.0376,-1.01587 -0.0752,-1.41093 -0.0941,-1.01587 -0.52674,-1.8248 -1.222802,-2.21986 -0.658434,-0.39506 -1.26043,-0.48912 -2.99117,-0.48912 -3.066419,0 -3.988226,0.20693 -4.891221,1.0723 -0.865369,0.80894 -1.053493,1.61787 -1.053493,4.5526 0,1.24162 0.03762,2.70898 0.112874,3.46148 0.131687,1.71193 0.620809,2.63373 1.674302,3.17929 0.752496,0.39506 1.486179,0.50794 3.367418,0.50794 1.26043,0 2.276299,-0.0376 2.727796,-0.13169 0.714871,-0.11287 1.392116,-0.43268 1.749556,-0.82774 0.56437,-0.602 0.73368,-1.27925 0.73368,-3.04761 l 0,-0.43269 -1.918864,0 z" />
              <path
                 inkscape:connector-curvature="0"
                 id="path4257"
                 style="font-style:normal;font-variant:normal;font-weight:500;font-stretch:normal;font-size:18.81238747px;font-family:Eurostile;-inkscape-font-specification:'Eurostile Medium';letter-spacing:0.89763415px;word-spacing:0px;fill:#ffffff;fill-opacity:1"
                 d="m 105.59714,475.13906 0,-0.1505 c 0.0188,-1.01587 0.39506,-1.26043 1.93768,-1.26043 1.69311,0 2.03174,0.35743 2.03174,2.05055 l 0,1.24162 -0.0376,0 c -0.16931,-0.35744 -0.33862,-0.52675 -0.62081,-0.63963 -0.47031,-0.20693 -1.20399,-0.30099 -2.1258,-0.30099 -1.18518,0 -2.03173,0.20693 -2.53967,0.58318 -0.47031,0.35744 -0.75249,1.18518 -0.75249,2.18224 0,1.9753 0.84655,2.69017 3.25454,2.69017 1.69311,0 2.37036,-0.28219 2.87829,-1.20399 l 0.0376,0.0188 -0.0941,1.0723 1.73074,0 0,-5.7754 c 0,-2.4268 -0.84656,-3.12286 -3.81892,-3.12286 -1.91886,0 -2.85948,0.26338 -3.29217,0.92181 -0.24456,0.39506 -0.31981,0.80893 -0.33862,1.69312 l 1.74955,0 z m 1.80599,2.16342 c 1.71193,0 2.20105,0.31981 2.20105,1.48618 0,1.07231 -0.56437,1.42974 -2.31392,1.42974 -1.65549,0 -2.01293,-0.28218 -2.01293,-1.56143 0,-1.09112 0.41387,-1.35449 2.1258,-1.35449 z" />
              <path
                 inkscape:connector-curvature="0"
                 id="path4259"
                 style="font-style:normal;font-variant:normal;font-weight:500;font-stretch:normal;font-size:18.81238747px;font-family:Eurostile;-inkscape-font-specification:'Eurostile Medium';letter-spacing:0.89763415px;word-spacing:0px;fill:#ffffff;fill-opacity:1"
                 d="m 114.31544,472.63701 0,8.78538 1.73074,0 0,-5.22984 c 0,-0.79012 0.0564,-1.16637 0.18812,-1.48618 0.26337,-0.54556 0.82775,-0.84656 1.63668,-0.84656 0.94062,0 1.26043,0.33863 1.26043,1.3545 0,0.16931 0,0.31981 -0.0188,0.58318 l 1.63667,0 c 0.0188,-0.26337 0.0188,-0.54556 0.0188,-0.62081 0,-1.91886 -0.69606,-2.70898 -2.37036,-2.70898 -1.22281,0 -1.88124,0.35743 -2.44561,1.31686 l -0.0376,-0.0188 0.13169,-1.12874 -1.73074,0 z" />
              <path
                 inkscape:connector-curvature="0"
                 id="path4261"
                 style="font-style:normal;font-variant:normal;font-weight:500;font-stretch:normal;font-size:18.81238747px;font-family:Eurostile;-inkscape-font-specification:'Eurostile Medium';letter-spacing:0.89763415px;word-spacing:0px;fill:#ffffff;fill-opacity:1"
                 d="m 129.01901,478.67579 c 0,1.29805 -0.28219,1.50499 -2.1258,1.50499 -1.86243,0 -2.25749,-0.4515 -2.25749,-2.5773 l 0,-0.26337 6.13284,0 c 0,-1.90006 -0.0376,-2.38918 -0.24456,-3.0288 -0.4515,-1.31687 -1.3733,-1.78718 -3.57435,-1.78718 -3.27336,0 -4.08229,0.88419 -4.08229,4.45854 0,3.70604 0.75249,4.5526 4.11991,4.5526 2.76542,0 3.78129,-0.67725 3.78129,-2.52086 l 0,-0.33862 -1.74955,0 z m -4.36447,-2.50205 c 0.0188,-1.99412 0.33862,-2.33274 2.25748,-2.33274 1.26043,0 1.74955,0.18813 1.95649,0.7525 0.13169,0.33862 0.1505,0.45149 0.16931,1.58024 l -4.38328,0 z" />
            </g>
            <g
               id="g5052-8-3"
               transform="matrix(0.09959948,0,0,0.09959948,43.190674,383.52318)"
               style="fill:#ff8635;fill-opacity:1">
              <path
                 style="color:#000000;display:inline;overflow:visible;visibility:visible;opacity:1;fill:#ff8635;fill-opacity:1;fill-rule:nonzero;stroke:none;stroke-width:8;stroke-linejoin:miter;stroke-miterlimit:10;stroke-dasharray:none;stroke-dashoffset:0;stroke-opacity:1;marker:none;enable-background:accumulate"
                 d="m 808.02734,49.617188 a 55.714287,55.714287 0 0 0 -55.71484,55.712892 55.714287,55.714287 0 0 0 55.71484,55.71484 55.714287,55.714287 0 0 0 55.71485,-55.71484 55.714287,55.714287 0 0 0 -55.71485,-55.712892 z m -8.91406,24.265624 0.002,0.0039 c 0.47527,0.02704 0.95482,0.08779 1.42969,0.183593 4.79917,0.721311 8.29019,4.918817 13.14063,5.466797 3.65383,0.55451 7.19457,-1.016534 10.83203,-0.927734 6.65048,0.31015 12.12256,6.725125 12.03906,13.390625 a 26.83051,5.9717576 8.3718944 0 0 0.55274,-0.900391 26.83051,5.9717576 8.3718944 0 0 -0.1211,-0.792968 28.075466,7.6402709 8.3321702 0 1 1.06641,2.621093 28.075466,7.6402709 8.3321702 0 1 -0.0391,0.148438 l -0.0137,-0.0039 a 28.075466,7.6402709 8.3321702 0 1 -29.02343,3.214843 28.075466,7.6402709 8.3321702 0 1 -24.17383,-7.919921 27.4144,5.5224254 7.2714767 0 1 -0.63867,-0.484376 28.075466,7.6402709 8.3321702 0 1 -0.84766,-0.890624 27.4144,5.5224254 7.2714767 0 1 -0.15234,-0.253907 28.075466,7.6402709 8.3321702 0 1 -0.48047,-0.878906 l -0.0156,-0.0039 a 28.075466,7.6402709 8.3321702 0 1 -0.16015,-1.179688 28.075466,7.6402709 8.3321702 0 1 1.89843,-2.183593 26.83051,5.9717576 8.3718944 0 0 -0.38281,0.724609 26.83051,5.9717576 8.3718944 0 0 0.93555,1.939453 c 0.53239,-3.23259 2.13621,-6.294414 4.8164,-8.177734 2.7222,-1.8722 6.0089,-3.285823 9.33594,-3.095704 z m -14.3457,15.894532 c 4e-5,0.002 -4e-5,0.0039 0,0.0059 a 28.011101,8.1183175 7.0846122 0 0 23.93554,7.650391 28.011101,8.1183175 7.0846122 0 0 27.38086,-2.019532 c -0.36737,1.606241 -0.90617,3.146437 -1.53125,4.654297 a 26.125057,5.9682062 8.6244248 0 0 1.42188,-1.550781 26.125057,5.9682062 8.6244248 0 0 -0.11719,-0.789062 27.337151,7.6357636 8.5967684 0 1 1.03906,2.619143 27.337151,7.6357636 8.5967684 0 1 -0.0625,0.17773 27.337151,7.6357636 8.5967684 0 1 -0.3125,0.68359 27.337151,7.6357636 8.5967684 0 1 -27.91406,2.49805 27.337151,7.6357636 8.5967684 0 1 -23.51562,-7.912107 26.689713,5.5199443 7.4875476 0 1 -0.61328,-0.47461 27.337151,7.6357636 8.5967684 0 1 -0.83985,-0.908203 26.689713,5.5199443 7.4875476 0 1 -0.14844,-0.253906 27.337151,7.6357636 8.5967684 0 1 -0.46679,-0.884765 l -0.0156,-0.0039 a 27.337151,7.6357636 8.5967684 0 1 -0.15625,-1.171875 27.337151,7.6357636 8.5967684 0 1 1.85156,-2.185547 26.125057,5.9682062 8.6244248 0 0 -0.375,0.722657 26.125057,5.9682062 8.6244248 0 0 0.48438,1.447265 c -0.0404,-0.765898 -0.0299,-1.531774 -0.0449,-2.298828 a 28.011101,8.1183175 7.0846122 0 1 -0.006,-0.0039 l 0.006,-0.002 z m -0.88281,6.302734 a 27.270055,8.1148432 7.3152987 0 0 0.0527,0.05469 25.365937,5.9640204 8.9146206 0 0 -0.23242,0.533203 25.365937,5.9640204 8.9146206 0 0 1.61133,2.595703 c -0.0463,-0.65322 -0.0971,-1.305915 -0.14258,-1.958984 a 27.270055,8.1148432 7.3152987 0 0 23.16992,7.54687 27.270055,8.1148432 7.3152987 0 0 24.44141,-0.96289 c -0.44266,0.88648 -0.88599,1.77352 -1.34571,2.6543 a 25.365937,5.9640204 8.9146206 0 0 2.38282,-1.99024 25.365937,5.9640204 8.9146206 0 0 -0.11524,-0.79296 26.542728,7.6304326 8.9022088 0 1 1.00586,2.61914 26.542728,7.6304326 8.9022088 0 1 -0.0606,0.19921 26.542728,7.6304326 8.9022088 0 1 -0.33203,0.70508 26.542728,7.6304326 8.9022088 0 1 -0.0156,0.0234 26.542728,7.6304326 8.9022088 0 1 -27.03321,2.43359 26.542728,7.6304326 8.9022088 0 1 -22.45703,-7.61523 25.909731,5.5170216 7.7355452 0 1 -0.29687,-0.21484 26.542728,7.6304326 8.9022088 0 1 -1.63477,-1.70508 25.909731,5.5170216 7.7355452 0 1 -0.0371,-0.0937 26.542728,7.6304326 8.9022088 0 1 -0.38281,-0.740234 l -0.0156,-0.0059 a 26.542728,7.6304326 8.9022088 0 1 -0.17188,-1.234375 26.542728,7.6304326 8.9022088 0 1 1.60938,-2.050781 z m 1.66015,8.064452 0.002,0 a 26.47252,8.1107284 7.5822362 0 0 21.46874,6.79883 26.47252,8.1107284 7.5822362 0 0 22.49805,-0.55274 c -0.68854,1.44906 -1.33148,2.91623 -1.83594,4.43946 -1.99465,4.91403 -2.37569,10.39746 -4.86328,15.11719 -2.999,5.14813 -7.92359,6.71945 -12.82031,6.20703 -2.92013,-2.56954 2.82912,-9.69005 1.60156,-16.51368 -0.5147,-2.62781 -1.56285,-5.66219 -4.15625,-6.80078 -3.12131,-1.2103 -6.17949,1.17716 -7.76562,3.75196 -3.80685,6.07201 -0.57035,17.35239 -4.51563,19.00586 -3.66636,1.07035 -9.22456,-5.81185 -10.29297,-11.5918 -0.85311,-5.41979 0.61208,-10.84594 0.61133,-16.2832 0.0835,-1.19438 0.0836,-2.38654 0.0684,-3.57813 z"
                 transform="translate(120.54365,495.603)"
                 id="path5021-9-4"
                 inkscape:connector-curvature="0" />
            </g>
          </g>
          <g
             id="text4140-6-9-7-2-8"
             style="font-style:normal;font-variant:normal;font-weight:normal;font-stretch:normal;font-size:25.64810181px;line-height:125%;font-family:Bariol;-inkscape-font-specification:Bariol;text-align:end;letter-spacing:1.22380066px;word-spacing:0px;text-anchor:end;fill:#ffffff;fill-opacity:1;stroke:none;stroke-width:1px;stroke-linecap:butt;stroke-linejoin:miter;stroke-opacity:1"
             transform="scale(0.9949734,1.005052)">
            <path
               inkscape:connector-curvature="0"
               id="path4264"
               style="font-style:normal;font-variant:normal;font-weight:bold;font-stretch:normal;font-size:38.62282562px;font-family:Eurostile;-inkscape-font-specification:'Eurostile Bold';text-align:end;letter-spacing:1.22380066px;word-spacing:0px;text-anchor:end;fill:#ffffff;fill-opacity:1"
               d="m 156.38753,770.53626 -4.05464,0 q 0,-8.52418 -1.24468,-12.40909 -1.32012,-4.20552 -4.45068,-4.20552 -3.05513,0 -4.41296,4.1678 -1.30126,3.94149 -1.30126,12.44681 l -4.01692,0 q 0,-7.09091 1.11267,-10.46664 0.98065,-2.99855 3.99806,-6.14797 l -5.07302,0 0,-3.90377 13.52177,0 q 3.4323,0 3.4323,-2.73453 0,-1.11266 -1.26354,-2.16876 0.0754,0 0.75435,-0.69777 0.67892,-0.69778 0.67892,-0.75436 2.31963,2.30078 2.31963,4.58269 0,5.37476 -5.33704,5.6765 3.20599,3.30029 4.18665,6.12911 1.15039,3.31915 1.15039,10.4855 z" />
            <path
               inkscape:connector-curvature="0"
               id="path4266"
               style="font-style:normal;font-variant:normal;font-weight:bold;font-stretch:normal;font-size:38.62282562px;font-family:Eurostile;-inkscape-font-specification:'Eurostile Bold';text-align:end;letter-spacing:1.22380066px;word-spacing:0px;text-anchor:end;fill:#ffffff;fill-opacity:1"
               d="m 170.52961,761.14457 q 0,4.13008 -1.67843,6.75145 -1.86703,2.94198 -5.33704,2.94198 -3.73405,0 -5.54449,-3.96035 -1.07495,-2.35735 -1.07495,-4.03578 l 0.81092,-0.18859 q 0.18859,0.47147 0.35832,0.94294 0.56577,1.07495 1.69729,1.73501 1.56528,0.92408 4.05465,0.92408 1.92359,0 3.35686,-1.15039 1.65958,-1.32011 1.65958,-3.56431 0,-5.45019 -7.6001,-7.61896 -1.99903,-0.56576 -1.99903,-2.18762 0,-0.82979 0.60348,-1.45213 0.62234,-0.6412 1.58414,-0.6412 2.94197,0 5.9028,3.39459 3.206,3.65861 3.206,8.10928 z" />
            <path
               inkscape:connector-curvature="0"
               id="path4268"
               style="font-style:normal;font-variant:normal;font-weight:bold;font-stretch:normal;font-size:38.62282562px;font-family:Eurostile;-inkscape-font-specification:'Eurostile Bold';text-align:end;letter-spacing:1.22380066px;word-spacing:0px;text-anchor:end;fill:#ffffff;fill-opacity:1"
               d="m 198.06346,759.40956 q 0,5.20503 -3.60203,8.37331 -3.4323,3.01741 -8.67505,3.01741 -4.941,0 -8.16586,-2.80996 -3.56431,-3.1117 -3.56431,-8.58076 0,-4.6204 2.24419,-7.39265 2.0179,-2.45164 4.77128,-2.45164 2.13105,0 3.5266,1.37669 1.54642,1.50871 1.54642,4.14894 0,2.41393 -1.33898,3.86605 -1.20696,1.30126 -2.88539,1.30126 -1.65958,0 -2.79111,-1.15039 -1.22582,-1.26354 -1.22582,-3.45116 0,-0.11315 0.0377,-0.35831 0.0566,-0.24517 0.0566,-0.3206 -1.82931,1.81044 -1.82931,4.46953 0,3.5266 2.82882,5.26161 2.47051,1.54642 6.78917,1.54642 4.54497,0 7.35493,-1.73501 2.99855,-1.8293 2.99855,-5.07302 0,-2.84768 -1.92359,-4.29981 -1.62186,-1.22582 -4.29981,-1.22582 l 0,-3.90377 5.71422,0 0,3.90377 q 2.43278,1.84817 2.43278,5.48791 z m -13.74807,-4.31866 q 0,-1.62186 -2.39506,-1.62186 -0.94294,0 -1.58414,0.18859 -0.4149,0.84865 -0.4149,1.47099 0,1.58414 1.81045,1.58414 0.98066,0 1.73501,-0.4149 0.84864,-0.45261 0.84864,-1.20696 z" />
            <path
               inkscape:connector-curvature="0"
               id="path4270"
               style="font-style:normal;font-variant:normal;font-weight:bold;font-stretch:normal;font-size:38.62282562px;font-family:Eurostile;-inkscape-font-specification:'Eurostile Bold';text-align:end;letter-spacing:1.22380066px;word-spacing:0px;text-anchor:end;fill:#ffffff;fill-opacity:1"
               d="m 200.6094,748.32059 q 0,2.73452 -1.88588,4.31866 -1.54642,1.2824 -3.45116,1.2824 l -2.94197,0 0,-3.90377 2.94197,0 q 2.97969,0 2.97969,-2.39507 0,-1.22582 -0.71663,-1.94245 -0.6412,-0.6412 -1.603,-0.6412 -2.09333,0 -2.09333,1.58414 0,0.71663 0.66006,0.88636 -0.11315,-0.33946 -0.11315,-0.56576 0,-1.16925 1.03723,-1.16925 1.43327,0 1.43327,1.69729 0,1.73501 -2.20648,1.73501 -2.31963,0 -2.31963,-2.58365 0,-1.64072 1.1881,-2.58366 1.09381,-0.84865 2.75339,-0.84865 1.75386,0 2.96083,1.2824 1.37669,1.43327 1.37669,3.8472 z" />
            <path
               inkscape:connector-curvature="0"
               id="path4272"
               style="font-style:normal;font-variant:normal;font-weight:bold;font-stretch:normal;font-size:38.62282562px;font-family:Eurostile;-inkscape-font-specification:'Eurostile Bold';text-align:end;letter-spacing:1.22380066px;word-spacing:0px;text-anchor:end;fill:#ffffff;fill-opacity:1"
               d="m 216.97682,770.57397 -6.52515,0 q -2.71567,-1.79158 -4.20551,-5.14845 -1.35784,-3.07398 -1.35784,-6.60058 0,-3.90377 1.64072,-6.46857 1.75387,-2.75338 4.67698,-2.75338 2.37621,0 3.62089,1.56528 1.11267,1.39555 1.0561,3.48888 -0.0377,2.1499 -1.13153,3.7529 -1.18811,1.73501 -3.03627,1.73501 -1.90474,0 -2.94197,-1.64072 -0.88637,-1.41441 -0.88637,-3.52659 -0.39603,0.24516 -0.69777,1.41441 -0.30174,1.16924 -0.30174,2.43278 0,3.45116 2.45164,6.67602 2.80996,3.69632 7.63782,5.07301 z m -2.90426,-15.80367 q 0,-1.77273 -2.28191,-1.77273 -0.77322,0 -2.07447,0.58462 0,3.05513 2.30077,3.05513 0.88636,0 1.47099,-0.5469 0.58462,-0.56577 0.58462,-1.32012 z" />
            <path
               inkscape:connector-curvature="0"
               id="path4274"
               style="font-style:normal;font-variant:normal;font-weight:bold;font-stretch:normal;font-size:38.62282562px;font-family:Eurostile;-inkscape-font-specification:'Eurostile Bold';text-align:end;letter-spacing:1.22380066px;word-spacing:0px;text-anchor:end;fill:#ffffff;fill-opacity:1"
               d="m 245.24616,759.67359 -3.88491,0 q 1.03723,0.2263 2.1499,1.45213 1.32012,1.45212 1.32012,3.14941 0,2.52708 -1.54642,4.43182 -1.73501,2.13105 -4.52612,2.13105 -4.48839,0 -6.01595,-4.28095 -2.6591,4.28095 -6.07254,4.28095 -2.50822,0 -4.24323,-1.64072 -1.73501,-1.65957 -1.73501,-4.11122 0,-2.26305 1.62186,-4.09236 0.0377,-0.0189 3.03627,-2.69681 1.64071,-1.43326 1.64071,-2.75338 0,-2.8854 -2.20648,-2.8854 -2.13104,0 -2.13104,2.07447 0,1.86702 1.65957,2.86654 -0.66006,0.18859 -0.84864,0.18859 -1.39556,0 -2.48937,-0.92408 -1.2824,-1.11267 -1.2824,-3.01741 0,-2.2442 1.30126,-3.56432 1.32012,-1.33897 3.48888,-1.33897 2.20648,0 3.67747,1.41441 1.52756,1.48984 1.52756,3.96035 0,1.96131 -1.54642,3.50773 -1.45213,1.24469 -2.8854,2.47051 -1.54642,1.48984 -1.54642,3.28143 0,2.64023 3.69632,2.67795 3.01741,0.0189 4.90329,-3.7529 0.4149,0.69777 0.82979,1.41441 0.67892,0.99951 1.62186,1.54642 1.2824,0.75435 3.18713,0.75435 1.96132,0 3.24372,-0.99952 1.16924,-0.90522 1.16924,-2.09332 0,-0.86751 -1.15038,-2.20648 -1.07495,-1.24468 -1.52757,-1.24468 l -5.46905,0 0,-4.05465 5.82737,0 q 0.82979,0 0.82979,-0.88636 0,-0.81093 -0.67892,-0.81093 l -5.86509,0 0,-3.90377 5.05416,0 q 3.43231,0 3.43231,-2.73453 0,-1.11266 -1.26354,-2.16876 0.0566,0 0.73549,-0.69777 0.69777,-0.69778 0.69777,-0.75436 2.26306,2.30078 2.26306,4.58269 0,3.88492 -2.80996,5.14846 0.90522,1.22582 0.84865,2.22533 l 1.96131,0 0,4.05465 z" />
            <path
               inkscape:connector-curvature="0"
               id="path4276"
               style="font-style:normal;font-variant:normal;font-weight:500;font-stretch:normal;font-size:38.62282562px;font-family:Eurostile;-inkscape-font-specification:'Eurostile Medium';text-align:end;letter-spacing:1.22380066px;word-spacing:0px;text-anchor:end;fill:#ffffff;fill-opacity:1"
               d="m 285.46794,764.08655 q 0,2.86653 -1.2824,4.67698 -1.52756,2.11219 -4.48839,2.11219 -3.22486,0 -5.86509,-4.62041 -2.03675,4.62041 -5.48791,4.62041 -2.41393,0 -4.11122,-1.79159 -1.90474,-2.01789 -1.90474,-5.46905 0,-3.90378 2.13105,-6.6383 1.79158,-2.28192 4.73356,-3.35687 l -6.44971,0 0,-3.24371 19.31141,0 0,3.24371 -2.30078,0 q 1.52757,0.67892 2.62138,2.07447 1.11267,1.37669 1.11267,2.5648 0,0.77321 0.15087,0.92408 0.43375,0 1.11267,1.73501 0.71663,1.81044 0.71663,3.16828 z m -3.13056,-5.09188 q -1.1881,-0.77321 -2.54594,-0.77321 -1.13153,0 -1.84816,0.49033 -0.71664,0.49033 -0.71664,1.16924 0,1.41441 1.82931,1.41441 2.18762,0 3.28143,-2.30077 z m 1.77273,4.24323 q 0,-0.98066 -0.20745,-1.99903 -0.26402,-1.24468 -0.6412,-1.24468 -1.67843,2.77224 -4.52611,2.77224 -1.45213,0 -2.31963,-0.79207 -0.84865,-0.79207 -0.84865,-1.86702 0,-1.1881 0.84865,-1.99903 0.9618,-0.94294 2.64023,-0.94294 1.30126,0 2.39507,0.47147 0.81092,0.35831 0.81092,0.41489 0,-1.69729 -2.33849,-3.01741 -2.50822,-1.41441 -6.16682,-1.41441 -4.29981,0 -6.82689,2.11219 -2.71567,2.26305 -2.71567,6.46857 0,4.82785 4.60155,4.82785 3.14942,0 5.01644,-4.01692 1.98017,4.01692 5.48791,4.01692 4.79014,0 4.79014,-3.79062 z" />
            <path
               inkscape:connector-curvature="0"
               id="path4278"
               style="font-style:normal;font-variant:normal;font-weight:500;font-stretch:normal;font-size:38.62282562px;font-family:Eurostile;-inkscape-font-specification:'Eurostile Medium';text-align:end;letter-spacing:1.22380066px;word-spacing:0px;text-anchor:end;fill:#ffffff;fill-opacity:1"
               d="m 287.97414,747.9057 q 0,2.77224 -1.86702,4.37524 -1.56528,1.33897 -3.52659,1.33897 l -2.71567,0 0,-3.24371 2.71567,0 q 1.65957,0 2.71566,-0.86751 1.0561,-0.88636 1.0561,-2.30077 0,-1.52756 -0.94294,-2.45164 -0.86751,-0.82979 -2.05561,-0.82979 -1.16925,0 -1.94246,0.5469 -0.84864,0.58463 -0.84864,1.62186 0,1.2824 1.09381,1.22582 0,-1.62185 1.07495,-1.62185 1.15038,0 1.15038,1.32011 0,1.37669 -1.99903,1.37669 -2.01789,0 -2.01789,-2.22533 0,-1.56529 1.16925,-2.45165 1.05609,-0.79207 2.62137,-0.79207 1.73501,0 2.96083,1.24468 1.35783,1.37669 1.35783,3.73405 z" />
            <path
               inkscape:connector-curvature="0"
               id="path4280"
               style="font-style:normal;font-variant:normal;font-weight:500;font-stretch:normal;font-size:38.62282562px;font-family:Eurostile;-inkscape-font-specification:'Eurostile Medium';text-align:end;letter-spacing:1.22380066px;word-spacing:0px;text-anchor:end;fill:#ffffff;fill-opacity:1"
               d="m 306.94609,760.10734 q 0,10.73066 -7.58124,10.73066 -3.58317,0 -5.54449,-2.90426 -1.90474,-2.82882 -1.90474,-7.8264 0,-4.63927 1.88588,-7.24178 1.94246,-2.67795 5.52563,-2.67795 7.61896,0 7.61896,9.91973 z m -1.05609,0.30174 q 0,-2.50822 -2.0179,-4.60155 -1.99903,-2.11218 -4.50725,-2.11218 -2.50822,0 -4.46953,1.98017 -2.0179,2.03675 -2.0179,4.73356 0,3.07399 2.0179,4.88443 1.8293,1.64072 4.46953,1.64072 2.7911,0 4.52611,-1.47099 1.99904,-1.71615 1.99904,-5.05416 z" />
            <path
               inkscape:connector-curvature="0"
               id="path4282"
               style="font-style:normal;font-variant:normal;font-weight:500;font-stretch:normal;font-size:38.62282562px;font-family:Eurostile;-inkscape-font-specification:'Eurostile Medium';text-align:end;letter-spacing:1.22380066px;word-spacing:0px;text-anchor:end;fill:#ffffff;fill-opacity:1"
               d="m 335.19658,763.42649 q 0,2.97969 -1.62185,5.11073 -1.81045,2.3385 -4.79014,2.3385 -1.86702,0 -3.30029,-1.26354 -1.01837,-0.88637 -1.73501,-2.3385 -0.26402,-0.66005 -0.52805,-1.30125 -0.26402,0.6412 -0.52804,1.30125 -0.73549,1.45213 -1.73501,2.3385 -1.39555,1.26354 -3.13056,1.26354 -3.50774,0 -5.16731,-2.71567 -1.32012,-2.18762 -1.32012,-5.7708 0,-2.65909 0.94294,-4.73355 1.07495,-2.3385 2.7911,-2.3385 -0.33946,0 -1.5087,-1.03723 -1.54642,-1.39555 -1.54642,-3.13056 0.0189,-1.52756 1.1881,-2.39507 0.99952,-0.73549 2.41393,-0.73549 1.52756,0 2.03675,0.77321 0,-0.0377 -0.75435,0.11315 -0.88637,0.18859 -1.43327,0.66006 -0.77321,0.6412 -0.77321,1.81044 0,2.37621 2.54593,3.67747 2.43279,1.09381 2.43279,3.97921 0,1.64071 -0.82979,2.84768 -0.88636,1.2824 -2.22534,1.2824 -1.30125,0 -2.13104,-0.90523 -0.81093,-0.92408 -0.81093,-2.37621 0,-1.07495 -0.0377,-1.05609 -1.26354,1.39555 -1.26354,3.67747 0,1.96131 1.22583,3.16828 1.37669,1.35783 3.94149,1.35783 4.0735,0 5.67649,-4.29981 1.84817,4.29981 5.60107,4.29981 2.52708,0 3.96035,-1.35783 1.30125,-1.22583 1.30125,-3.01741 0,-1.58414 -1.15038,-2.65909 -1.26354,-1.20697 -3.41345,-1.20697 l -2.54593,0 0,-2.43278 2.77224,0 q 0.62234,0 1.15039,-0.47147 0.6412,-0.58462 0.6412,-1.603 0,-1.43327 -1.16925,-2.39507 -1.16925,-0.9618 -3.05513,-0.9618 -1.1881,0 -1.56528,-0.39603 -0.28288,-0.28288 -0.28288,-0.99952 0,-1.5087 2.58366,-1.5087 2.30077,0 3.63975,1.48984 1.15038,1.2824 1.15038,3.07399 0,2.11218 -0.94294,3.48888 -0.6412,0.90522 -0.8675,0.90522 1.90474,0 3.1117,2.20648 1.05609,1.90474 1.05609,4.24323 z m -16.48259,-4.50725 q 0.0189,-0.77322 -0.52805,-1.32012 -0.60348,-0.62234 -1.64071,-0.62234 -1.30126,0 -1.96132,0.88636 -0.0754,0.30174 -0.0754,0.69778 0,2.13104 1.81044,2.13104 1.13153,0 1.79159,-0.56576 0.58462,-0.50919 0.60348,-1.20696 z" />
            <path
               inkscape:connector-curvature="0"
               id="path4284"
               style="font-style:normal;font-variant:normal;font-weight:500;font-stretch:normal;font-size:38.62282562px;font-family:Eurostile;-inkscape-font-specification:'Eurostile Medium';text-align:end;letter-spacing:1.22380066px;word-spacing:0px;text-anchor:end;fill:#ffffff;fill-opacity:1"
               d="m 363.80336,759.63587 q 0,5.11073 -3.56432,8.22244 -3.39458,2.97969 -8.56189,2.97969 -4.809,0 -7.97727,-2.73453 -3.5266,-3.05512 -3.5266,-8.4676 0,-4.52611 2.11219,-7.26064 1.90473,-2.4705 4.56383,-2.4705 2.01789,0 3.35686,1.33897 1.43327,1.43327 1.43327,3.88492 0,2.28191 -1.24468,3.62089 -1.09381,1.20696 -2.62137,1.20696 -1.52757,0 -2.52708,-1.05609 -1.09381,-1.15039 -1.09381,-3.14942 0,-1.65958 0.30174,-1.82931 -0.49033,0 -1.56528,1.32012 -1.52757,1.8293 -1.52757,4.43182 0,3.79062 3.03627,5.69536 2.67795,1.69729 7.2795,1.69729 4.84671,0 7.86412,-1.88588 3.22485,-1.99904 3.22485,-5.50677 0,-2.11219 -1.75386,-4.01693 -1.88588,-2.03675 -4.39411,-2.03675 l 0,-3.24371 5.90281,0 0,3.24371 -1.33898,0 q 2.62138,2.80996 2.62138,6.01596 z m -13.16345,-4.50725 q 0,-2.03675 -2.86653,-2.09333 -0.90523,-0.0189 -1.88588,0.3206 -0.66006,0.58462 -0.66006,1.84816 0,0.94294 0.69777,1.52756 0.6412,0.54691 1.62186,0.54691 1.18811,0 2.09333,-0.54691 0.99951,-0.62234 0.99951,-1.60299 z" />
            <path
               inkscape:connector-curvature="0"
               id="path4286"
               style="font-style:normal;font-variant:normal;font-weight:500;font-stretch:normal;font-size:38.62282562px;font-family:Eurostile;-inkscape-font-specification:'Eurostile Medium';text-align:end;letter-spacing:1.22380066px;word-spacing:0px;text-anchor:end;fill:#ffffff;fill-opacity:1"
               d="m 384.37629,750.41392 q 0,0.8675 -0.73549,1.39555 0,-1.09381 -1.11267,-2.05561 -1.30126,-1.11267 -3.37572,-1.11267 -4.01693,0 -5.09188,1.73501 2.67795,0 4.33752,1.15039 2.14991,1.48984 2.14991,4.63926 0,2.20648 -1.26354,3.67747 -1.18811,1.37669 -2.82882,1.37669 -1.81045,0 -3.01741,-1.603 -1.37669,-1.86702 -1.37669,-5.2616 0,-0.54691 0.0377,-0.7355 l -10.16489,0 0,-3.24371 10.65522,0 q 0,-2.20648 1.96132,-3.4323 1.65957,-1.01838 3.99806,-1.01838 2.3385,0 4.01693,1.22582 1.81044,1.2824 1.81044,3.26258 z m -8.07156,7.88297 q 1.41441,0 2.26305,-0.67891 0.75435,-0.62234 0.75435,-1.52756 0,-0.98066 -0.90522,-1.6973 -0.99951,-0.77321 -2.69681,-0.77321 l -2.50822,0 q -0.0189,0.26403 -0.0189,0.62234 0,4.05464 3.11171,4.05464 z" />
            <path
               inkscape:connector-curvature="0"
               id="path4288"
               style="font-style:normal;font-variant:normal;font-weight:500;font-stretch:normal;font-size:38.62282562px;font-family:Eurostile;-inkscape-font-specification:'Eurostile Medium';text-align:end;letter-spacing:1.22380066px;word-spacing:0px;text-anchor:end;fill:#ffffff;fill-opacity:1"
               d="m 416.75483,759.29641 -4.13007,0 q 1.03723,0.58462 1.88588,1.84816 1.03723,1.56528 1.03723,3.35687 0,3.07399 -1.98017,4.82785 -1.77273,1.54643 -4.33753,1.54643 -2.60251,0 -4.35638,-1.54643 -1.98018,-1.73501 -1.98018,-4.82785 0,-1.79159 1.03724,-3.35687 0.84864,-1.26354 1.88588,-1.84816 l -4.3941,0 0,-2.54594 7.44922,0 q 0.69778,-0.47147 0.69778,-1.54642 0,-0.9618 -0.77321,-1.58414 l -7.37379,0 0,-3.24371 11.54158,0 0,3.24371 -2.31963,0 q 0.81093,0.6412 0.81093,1.58414 0,0.92408 -0.52805,1.54642 l 5.82737,0 0,2.54594 z m -3.09284,3.90377 q 0,-1.81044 -1.11267,-2.99855 -1.22582,-1.28239 -3.31915,-1.28239 -1.90474,0 -3.24371,1.28239 -1.32012,1.26354 -1.32012,2.99855 0,1.98018 1.41441,3.07399 1.26354,0.98066 3.14942,0.98066 1.81045,0 3.03627,-0.98066 1.39555,-1.09381 1.39555,-3.07399 z" />
            <path
               inkscape:connector-curvature="0"
               id="path4290"
               style="font-style:normal;font-variant:normal;font-weight:500;font-stretch:normal;font-size:38.62282562px;font-family:Eurostile;-inkscape-font-specification:'Eurostile Medium';text-align:end;letter-spacing:1.22380066px;word-spacing:0px;text-anchor:end;fill:#ffffff;fill-opacity:1"
               d="m 416.86799,747.9057 q 0,2.77224 -1.86702,4.37524 -1.56528,1.33897 -3.5266,1.33897 l -2.71567,0 0,-3.24371 2.71567,0 q 1.65958,0 2.71567,-0.86751 1.05609,-0.88636 1.05609,-2.30077 0,-1.52756 -0.94294,-2.45164 -0.8675,-0.82979 -2.05561,-0.82979 -1.16924,0 -1.94245,0.5469 -0.84865,0.58463 -0.84865,1.62186 0,1.2824 1.09381,1.22582 0,-1.62185 1.07495,-1.62185 1.15039,0 1.15039,1.32011 0,1.37669 -1.99903,1.37669 -2.0179,0 -2.0179,-2.22533 0,-1.56529 1.16925,-2.45165 1.05609,-0.79207 2.62137,-0.79207 1.73501,0 2.96084,1.24468 1.35783,1.37669 1.35783,3.73405 z" />
            <path
               inkscape:connector-curvature="0"
               id="path4292"
               style="font-style:normal;font-variant:normal;font-weight:500;font-stretch:normal;font-size:38.62282562px;font-family:Eurostile;-inkscape-font-specification:'Eurostile Medium';text-align:end;letter-spacing:1.22380066px;word-spacing:0px;text-anchor:end;fill:#ffffff;fill-opacity:1"
               d="m 433.65031,770.57397 -6.37428,0 q -2.69681,-1.71615 -4.16779,-5.05415 -1.33898,-3.03627 -1.33898,-6.52515 0,-3.82834 1.54642,-6.33656 1.67844,-2.71566 4.54497,-2.71566 2.20648,0 3.37573,1.47098 1.03723,1.30126 1.03723,3.24372 -0.0189,2.01789 -1.07495,3.48887 -1.13153,1.62186 -2.86654,1.62186 -1.71615,0 -2.65909,-1.39555 -0.82978,-1.22582 -0.82978,-3.13056 0,-0.43375 0.0377,-1.20696 -1.96131,1.98017 -1.96131,4.95986 0,3.48888 2.58365,6.58172 2.94198,3.50774 8.14701,4.99758 z m -2.39507,-15.76595 q 0,-2.30078 -2.80996,-2.30078 -1.35784,0 -2.65909,0.84865 0,3.80948 2.92311,3.80948 1.09381,0 1.84816,-0.7355 0.69778,-0.69777 0.69778,-1.62185 z" />
            <path
               inkscape:connector-curvature="0"
               id="path4294"
               style="font-style:normal;font-variant:normal;font-weight:500;font-stretch:normal;font-size:38.62282562px;font-family:Eurostile;-inkscape-font-specification:'Eurostile Medium';text-align:end;letter-spacing:1.22380066px;word-spacing:0px;text-anchor:end;fill:#ffffff;fill-opacity:1"
               d="m 456.45057,761.50289 q 0,3.8472 -2.73452,6.58172 -2.71567,2.71567 -6.58172,2.71567 -3.82834,0 -6.54401,-2.71567 -2.71567,-2.73452 -2.71567,-6.58172 0,-4.79013 4.24323,-7.88298 l -4.28094,0 0,-3.24371 15.18133,0 0,3.24371 -1.05609,0 q 4.48839,2.20648 4.48839,7.88298 z m -2.20648,-1.09381 q 0,-2.92311 -2.05561,-4.84671 -2.0556,-1.94246 -5.05415,-1.94246 -2.94198,0 -4.97873,1.94246 -2.03675,1.9236 -2.03675,4.84671 0,2.92311 2.03675,4.88443 2.03675,1.96132 4.97873,1.96132 2.97969,0 5.0353,-1.96132 2.07446,-1.98017 2.07446,-4.88443 z" />
            <path
               inkscape:connector-curvature="0"
               id="path4296"
               style="font-style:normal;font-variant:normal;font-weight:500;font-stretch:normal;font-size:38.62282562px;font-family:Eurostile;-inkscape-font-specification:'Eurostile Medium';text-align:end;letter-spacing:1.22380066px;word-spacing:0px;text-anchor:end;fill:#ffffff;fill-opacity:1"
               d="m 474.79817,750.41392 q 0,0.8675 -0.73549,1.39555 0,-1.09381 -1.11267,-2.05561 -1.30126,-1.11267 -3.37573,-1.11267 -4.01692,0 -5.09188,1.73501 2.67795,0 4.33753,1.15039 2.1499,1.48984 2.1499,4.63926 0,2.20648 -1.26354,3.67747 -1.1881,1.37669 -2.82882,1.37669 -1.81044,0 -3.01741,-1.603 -1.37669,-1.86702 -1.37669,-5.2616 0,-0.54691 0.0377,-0.7355 l -10.1649,0 0,-3.24371 10.65523,0 q 0,-2.20648 1.96131,-3.4323 1.65958,-1.01838 3.99807,-1.01838 2.33849,0 4.01692,1.22582 1.81045,1.2824 1.81045,3.26258 z m -8.07157,7.88297 q 1.41441,0 2.26306,-0.67891 0.75435,-0.62234 0.75435,-1.52756 0,-0.98066 -0.90522,-1.6973 -0.99952,-0.77321 -2.69681,-0.77321 l -2.50822,0 q -0.0189,0.26403 -0.0189,0.62234 0,4.05464 3.1117,4.05464 z" />
          </g>
        </g>
      </g>
    </g>
  </g>
</svg>
